<svg width="40" height="40" viewBox="0 0 40 40" fill="none" xmlns="http://www.w3.org/2000/svg">
  <!-- iFlytek Logo Design -->
  <defs>
    <linearGradient id="logoGradient" x1="0%" y1="0%" x2="100%" y2="100%">
      <stop offset="0%" style="stop-color:#1890ff;stop-opacity:1" />
      <stop offset="50%" style="stop-color:#667eea;stop-opacity:1" />
      <stop offset="100%" style="stop-color:#764ba2;stop-opacity:1" />
    </linearGradient>
  </defs>
  
  <!-- 外圆环 -->
  <circle cx="20" cy="20" r="18" fill="url(#logoGradient)" opacity="0.1"/>
  
  <!-- 主要图标 - 声波和AI符号 -->
  <g transform="translate(8, 8)">
    <!-- 声波符号 -->
    <path d="M4 12 L4 12 C4 8 8 8 8 12 L8 12 C8 16 4 16 4 12 Z" fill="url(#logoGradient)" opacity="0.8"/>
    <path d="M2 12 L2 12 C2 6 10 6 10 12 L10 12 C10 18 2 18 2 12 Z" fill="url(#logoGradient)" opacity="0.6"/>
    <path d="M0 12 L0 12 C0 4 12 4 12 12 L12 12 C12 20 0 20 0 12 Z" fill="url(#logoGradient)" opacity="0.4"/>
    
    <!-- AI 大脑符号 -->
    <circle cx="18" cy="8" r="3" fill="url(#logoGradient)"/>
    <circle cx="18" cy="16" r="3" fill="url(#logoGradient)"/>
    <path d="M15 8 Q18 12 21 8" stroke="url(#logoGradient)" stroke-width="2" fill="none"/>
    <path d="M15 16 Q18 12 21 16" stroke="url(#logoGradient)" stroke-width="2" fill="none"/>
    
    <!-- 连接线 -->
    <line x1="12" y1="12" x2="15" y2="12" stroke="url(#logoGradient)" stroke-width="2"/>
  </g>
  
  <!-- 装饰性元素 -->
  <circle cx="32" cy="8" r="2" fill="url(#logoGradient)" opacity="0.6"/>
  <circle cx="8" cy="32" r="2" fill="url(#logoGradient)" opacity="0.6"/>
  <circle cx="32" cy="32" r="1.5" fill="url(#logoGradient)" opacity="0.4"/>
</svg>
